<svg width="128" height="46" viewBox="0 0 128 46" fill="none" xmlns="http://www.w3.org/2000/svg">
<path d="M18.1632 1.92944C15.2 5.20055 14.2272 6.29944 12.672 8.17777C8.4736 13.225 5.7408 17.3842 3.904 21.4922C0.998399 28.0025 0.569599 33.7525 2.6624 37.9181C3.7568 40.0903 5.6768 42.0644 7.872 43.2656C9.3632 44.0833 11.5136 44.7286 13.632 44.9906C14.7648 45.1311 17.9648 45.0928 19.36 44.9267C23.5648 44.4156 27.9168 43.2464 32.864 41.3042C34.8544 40.5247 35.584 40.2117 70.464 25.3128C114.016 6.70833 126.592 1.3225 126.368 1.37361C126.15 1.41833 125.318 1.64194 82.016 13.1292C53.1712 20.7831 41.9776 23.7539 36.704 25.1403C34.1952 25.8047 32.5248 26.1242 30.112 26.3989C29.6832 26.45 28.6464 26.4819 27.456 26.4756C25.3056 26.4756 24.4416 26.3861 22.9632 26.0092C20.9088 25.4917 19.4752 24.7058 18.0288 23.3194C16.0128 21.3836 14.9696 19.0836 14.72 16.0361C14.528 13.7297 15.0208 10.6439 16.032 7.73055C16.7808 5.59666 18.112 2.76 19.2768 0.84333C19.3472 0.734719 19.3856 0.638885 19.3664 0.638885C19.3536 0.638885 18.8096 1.22027 18.1632 1.92944Z" fill="black"/>
</svg>
