<svg width="16" height="20" viewBox="0 0 16 20" fill="none" xmlns="http://www.w3.org/2000/svg">
<path d="M12.541 5.43607L11.6733 3.97518L11.0052 2.97168L11.6733 2.66121C11.6317 2.56141 11.604 2.45885 11.5874 2.35073C11.5708 2.23431 11.5624 2.12342 11.5624 2.01531C11.5624 1.57732 11.6622 1.2114 11.8591 0.91479C12.0586 0.60986 12.3331 0.382549 12.6907 0.235628C13.0538 0.0776184 13.4752 0 13.9548 0C14.0961 0 14.2236 0.00277208 14.3401 0.0110884C14.4648 0.0194046 14.5757 0.030493 14.6755 0.0471256V3.62312C14.4288 3.57323 14.1932 3.53996 13.9686 3.52333C13.7468 3.5067 13.5556 3.49838 13.3976 3.49838C13.1592 3.49838 12.9651 3.52333 12.8154 3.57323C12.674 3.61481 12.5715 3.68134 12.505 3.77005C12.4467 3.85321 12.419 3.95578 12.419 4.08052C12.419 4.172 12.4273 4.28288 12.444 4.41317C12.4689 4.53791 12.4883 4.69038 12.505 4.87057C12.5299 5.04244 12.541 5.22817 12.541 5.42776V5.43607Z" fill="black"/>
<path fill-rule="evenodd" clip-rule="evenodd" d="M4.97036 9.59702C5.83248 9.93799 6.82212 10.1071 7.93927 10.1071C9.05643 10.1071 10.035 9.93799 10.8721 9.59979C11.7176 9.25328 12.3746 8.77094 12.8459 8.14999C13.3171 7.5235 13.5528 6.78612 13.5528 5.9434C13.5528 5.51096 13.4835 5.10623 13.3476 4.732C13.2118 4.34945 13.0011 3.98908 12.7211 3.65088C12.2804 3.01608 11.64 2.52542 10.8028 2.1789C9.97399 1.83239 9.00653 1.66052 7.90323 1.66052C6.79994 1.66052 5.77427 1.83794 4.91215 2.18999C4.06111 2.5365 3.39304 3.02716 2.91624 3.66197C2.43667 4.29678 2.19827 5.0397 2.19827 5.89073C2.19827 6.74177 2.44221 7.48469 2.92733 8.1195C3.25998 8.54917 3.68134 8.91231 4.18863 9.21447C4.10824 9.24219 3.87816 9.31427 3.82549 9.3309C3.69797 9.37248 3.57323 9.41406 3.44848 9.45842C3.19899 9.54712 2.94951 9.64415 2.70833 9.75226C1.95987 10.0905 1.2114 10.5756 0.906474 11.3795C0.765097 11.7537 0.737377 12.1751 0.867665 12.5521C1.02013 12.9956 1.3805 13.3477 1.79354 13.575C2.24539 13.8245 2.78318 13.9714 3.29602 14.0241C3.35978 14.0296 4.21081 14.1488 4.21081 14.146V14.2708C2.96337 14.3733 1.94878 14.6006 1.16428 14.9527C0.388093 15.3048 0 15.837 0 16.5494C0 17.2619 0.335423 17.8385 1.0035 18.2764C1.67157 18.7144 2.58359 19.0332 3.73955 19.23C4.90383 19.4352 6.22612 19.5405 7.70919 19.5405C9.73282 19.5405 11.3489 19.3465 12.5576 18.9611C13.7773 18.5841 14.6561 18.0519 15.1994 17.3644C16.1474 16.1613 16.2916 14.4177 15.4267 13.1287C14.9804 12.4634 14.3234 11.9561 13.5943 11.6206C11.6705 10.7308 9.44729 10.9664 7.39317 10.9664H6.20671C6.04039 10.9664 5.87129 10.9664 5.70497 10.9498C5.54973 10.9359 5.38617 10.9249 5.23371 10.8888C5.09788 10.8556 4.92324 10.7668 4.82344 10.667C4.63494 10.4785 4.61276 10.1653 4.70424 9.91581C4.72919 9.85205 4.76245 9.79107 4.80958 9.7384C4.82898 9.71622 4.94264 9.58871 4.97591 9.60257L4.97036 9.59702ZM6.34255 14.1821H10.2096C11.3656 14.1821 11.9422 14.6838 11.9422 15.2382C11.9422 15.7926 11.6178 16.1752 10.9664 16.4496C10.326 16.7241 9.27265 16.8627 7.81176 16.8627C7.04389 16.8627 6.36195 16.8239 5.76595 16.7462C5.16995 16.6686 4.70147 16.5356 4.35773 16.3471C4.02231 16.1586 3.85598 15.8869 3.85598 15.5348C3.85598 15.338 3.92805 15.1301 4.0722 14.9167C4.22467 14.7115 4.49633 14.5341 4.88443 14.3872C5.23648 14.2569 5.7216 14.1876 6.33977 14.1821H6.34255ZM9.12296 7.44588C8.78476 7.59003 8.3939 7.6621 7.95036 7.6621C7.50683 7.6621 7.11319 7.59003 6.76668 7.44588C6.42848 7.29341 6.15959 7.08828 5.96277 6.8277C5.76595 6.56158 5.66616 6.24556 5.66616 5.88519C5.66616 5.52482 5.76595 5.21157 5.96277 4.94268C6.15959 4.66824 6.42848 4.46034 6.76668 4.31619C7.11319 4.16372 7.5096 4.08888 7.95036 4.08888C8.39112 4.08888 8.78199 4.16372 9.12296 4.31619C9.46115 4.46034 9.72727 4.67101 9.91577 4.94268C10.1126 5.2088 10.2124 5.52205 10.2124 5.88519C10.2124 6.24833 10.1126 6.55881 9.91577 6.8277C9.72727 7.08828 9.46115 7.29341 9.12296 7.44588Z" fill="black"/>
</svg>
