<svg width="32" height="32" viewBox="0 0 32 32" fill="none" xmlns="http://www.w3.org/2000/svg">
<g clip-path="url(#clip0_6718_5018)">
<rect width="32" height="32" rx="16" fill="#D8B8FF"/>
<circle cx="5" cy="5" r="5" transform="matrix(1 0 0 -1 11 18)" fill="white"/>
<mask id="mask0_6718_5018" style="mask-type:alpha" maskUnits="userSpaceOnUse" x="-8" y="20" width="48" height="19">
<rect x="-7.92731" y="20" width="47.8546" height="18.8" fill="white"/>
</mask>
<g mask="url(#mask0_6718_5018)">
<mask id="mask1_6718_5018" style="mask-type:alpha" maskUnits="userSpaceOnUse" x="2" y="20" width="28" height="28">
<path d="M30 34C30 26.268 23.732 20 16 20C8.26801 20 2 26.268 2 34C2 41.732 8.26801 48 16 48C23.732 48 30 41.732 30 34Z" fill="white"/>
</mask>
<g mask="url(#mask1_6718_5018)">
<rect x="-8" y="20" width="48" height="25" fill="white"/>
</g>
</g>
</g>
<rect x="0.5" y="0.5" width="31" height="31" rx="15.5" stroke="black" stroke-opacity="0.06"/>
<defs>
<clipPath id="clip0_6718_5018">
<rect width="32" height="32" rx="16" fill="white"/>
</clipPath>
</defs>
</svg>
